<?xml version="1.0" encoding="UTF-8" standalone="no"?>
<svg
   xmlns:dc="http://purl.org/dc/elements/1.1/"
   xmlns:cc="http://creativecommons.org/ns#"
   xmlns:rdf="http://www.w3.org/1999/02/22-rdf-syntax-ns#"
   xmlns:svg="http://www.w3.org/2000/svg"
   xmlns="http://www.w3.org/2000/svg"
   viewBox="0 0 1512 189"
   height="189"
   width="1512"
   xml:space="preserve"
   id="svg2"
   version="1.1"><metadata
     id="metadata8"><rdf:RDF><cc:Work
         rdf:about=""><dc:format>image/svg+xml</dc:format><dc:type
           rdf:resource="http://purl.org/dc/dcmitype/StillImage" /></cc:Work></rdf:RDF></metadata><defs
     id="defs6"><clipPath
       id="clipPath14"
       clipPathUnits="userSpaceOnUse"><path
         id="path12"
         d="M 0,7.2899976 H 1134 V 149.04 H 0 Z" /></clipPath><clipPath
       id="clipPath24"
       clipPathUnits="userSpaceOnUse"><path
         style="clip-rule:evenodd"
         id="path22"
         d="M 0,0 H 4725 V 590.625 H 0 Z" /></clipPath><clipPath
       id="clipPath36"
       clipPathUnits="userSpaceOnUse"><path
         style="clip-rule:evenodd"
         id="path34"
         d="M 0,0 H 4725 V 590.625 H 0 Z" /></clipPath><clipPath
       id="clipPath42"
       clipPathUnits="userSpaceOnUse"><path
         id="path40"
         d="M 0,0 H 4725 V 591 H 0 Z" /></clipPath><clipPath
       id="clipPath46"
       clipPathUnits="userSpaceOnUse"><path
         style="clip-rule:evenodd"
         id="path44"
         d="M 0,0 H 4725.5908 V 590.69885 H 0 Z" /></clipPath></defs><g
     clip-path="url(#clipPath14)"
     transform="matrix(1.3333333,0,0,-1.3333333,0,198.72)"
     id="g10"><g
       transform="matrix(0.23999999,0,0,-0.23999999,0,149.03999)"
       id="g16"><g
         id="g18"><g
           clip-path="url(#clipPath24)"
           id="g20"><g
             transform="scale(3.125)"
             id="g26"><path
               id="path28"
               style="fill:#ffffff;fill-opacity:1;fill-rule:nonzero;stroke:none"
               d="M 0,0 H 1512 V 189 H 0 Z" /></g></g></g><g
         id="g30"><g
           clip-path="url(#clipPath36)"
           id="g32"><g
             id="g38" /><g
             id="g308"><g
               id="g306"
               clip-path="url(#clipPath42)"><g
                 id="g54"><g
                   id="g52"
                   clip-path="url(#clipPath46)"><g
                     id="g50"
                     transform="scale(3.1253908)"><path
                       id="path48"
                       style="fill:#ffffff;fill-opacity:1;fill-rule:nonzero;stroke:none"
                       d="M 0,0 H 1512 V 189 H 0 Z" /></g></g></g><g
                 id="g96"
                 transform="matrix(3.1253908,0,0,3.1253908,-1181.2501,-4.669497)"><text
                   id="text58"
                   style="font-variant:normal;font-weight:bold;font-size:16.07999992px;font-family:'Courier 10 Pitch';-inkscape-font-specification:CourierNewPS-BoldMT;writing-mode:lr-tb;fill:#a6a6a6;fill-opacity:1;fill-rule:nonzero;stroke:none"
                   transform="translate(376.32822,15)"><tspan
                     id="tspan56"
                     y="0"
                     x="0 9.6484528 19.296906 28.945358 38.593811 48.242264 57.890717 67.539169 77.187622">guyễn Huệ</tspan></text>
<text
                   id="text62"
                   style="font-variant:normal;font-weight:bold;font-size:16.07999992px;font-family:'Courier 10 Pitch';-inkscape-font-specification:CourierNewPS-BoldMT;writing-mode:lr-tb;fill:#a6a6a6;fill-opacity:1;fill-rule:nonzero;stroke:none"
                   transform="translate(482.48438,15)"><tspan
                     id="tspan60"
                     y="0"
                     x="0 9.6484528 19.296906 28.945358 38.593811 48.242264 57.890717 67.539169 77.187622 86.836075 96.484528 106.13298 115.78143 125.42989 135.07834">THPT Nguyễn Huệ</tspan></text>
<text
                   id="text66"
                   style="font-variant:normal;font-weight:bold;font-size:16.07999992px;font-family:'Courier 10 Pitch';-inkscape-font-specification:CourierNewPS-BoldMT;writing-mode:lr-tb;fill:#a6a6a6;fill-opacity:1;fill-rule:nonzero;stroke:none"
                   transform="translate(646.53125,15)"><tspan
                     id="tspan64"
                     y="0"
                     x="0 9.6484528 19.296906 28.945358 38.593811 48.242264 57.890717 67.539169 77.187622 86.836075 96.484528 106.13298 115.78143 125.42989 135.07834">THPT Nguyễn Huệ</tspan></text>
<text
                   id="text70"
                   style="font-variant:normal;font-weight:bold;font-size:16.07999992px;font-family:'Courier 10 Pitch';-inkscape-font-specification:CourierNewPS-BoldMT;writing-mode:lr-tb;fill:#a6a6a6;fill-opacity:1;fill-rule:nonzero;stroke:none"
                   transform="translate(810.57813,15)"><tspan
                     id="tspan68"
                     y="0"
                     x="0 9.6484528 19.296906 28.945358 38.593811 48.242264 57.890717 67.539169 77.187622 86.836075 96.484528 106.13298 115.78143 125.42989 135.07834">THPT Nguyễn Huệ</tspan></text>
<text
                   id="text74"
                   style="font-variant:normal;font-weight:bold;font-size:16.07999992px;font-family:'Courier 10 Pitch';-inkscape-font-specification:CourierNewPS-BoldMT;writing-mode:lr-tb;fill:#a6a6a6;fill-opacity:1;fill-rule:nonzero;stroke:none"
                   transform="translate(974.625,15)"><tspan
                     id="tspan72"
                     y="0"
                     x="0 9.6484528 19.296906 28.945358 38.593811 48.242264 57.890717 67.539169 77.187622 86.836075 96.484528 106.13298 115.78143 125.42989 135.07834">THPT Nguyễn Huệ</tspan></text>
<text
                   id="text78"
                   style="font-variant:normal;font-weight:bold;font-size:16.07999992px;font-family:'Courier 10 Pitch';-inkscape-font-specification:CourierNewPS-BoldMT;writing-mode:lr-tb;fill:#a6a6a6;fill-opacity:1;fill-rule:nonzero;stroke:none"
                   transform="translate(1138.6719,15)"><tspan
                     id="tspan76"
                     y="0"
                     x="0 9.6484528 19.296906 28.945358 38.593811 48.242264 57.890717 67.539169 77.187622 86.836075 96.484528 106.13298 115.78143 125.42989 135.07834">THPT Nguyễn Huệ</tspan></text>
<text
                   id="text82"
                   style="font-variant:normal;font-weight:bold;font-size:16.07999992px;font-family:'Courier 10 Pitch';-inkscape-font-specification:CourierNewPS-BoldMT;writing-mode:lr-tb;fill:#a6a6a6;fill-opacity:1;fill-rule:nonzero;stroke:none"
                   transform="translate(1302.7188,15)"><tspan
                     id="tspan80"
                     y="0"
                     x="0 9.6484528 19.296906 28.945358 38.593811 48.242264 57.890717 67.539169 77.187622 86.836075 96.484528 106.13298 115.78143 125.42989 135.07834">THPT Nguyễn Huệ</tspan></text>
<text
                   id="text86"
                   style="font-variant:normal;font-weight:bold;font-size:16.07999992px;font-family:'Courier 10 Pitch';-inkscape-font-specification:CourierNewPS-BoldMT;writing-mode:lr-tb;fill:#a6a6a6;fill-opacity:1;fill-rule:nonzero;stroke:none"
                   transform="translate(1466.7656,15)"><tspan
                     id="tspan84"
                     y="0"
                     x="0 9.6484528 19.296906 28.945358 38.593811 48.242264 57.890717 67.539169 77.187622 86.836075 96.484528 106.13298 115.78143 125.42989 135.07834">THPT Nguyễn Huệ</tspan></text>
<text
                   id="text90"
                   style="font-variant:normal;font-weight:bold;font-size:16.07999992px;font-family:'Courier 10 Pitch';-inkscape-font-specification:CourierNewPS-BoldMT;writing-mode:lr-tb;fill:#a6a6a6;fill-opacity:1;fill-rule:nonzero;stroke:none"
                   transform="translate(1630.8125,15)"><tspan
                     id="tspan88"
                     y="0"
                     x="0 9.6484528 19.296906 28.945358 38.593811 48.242264 57.890717 67.539169 77.187622 86.836075 96.484528 106.13298 115.78143 125.42989 135.07834">THPT Nguyễn Huệ</tspan></text>
<text
                   id="text94"
                   style="font-variant:normal;font-weight:bold;font-size:16.07999992px;font-family:'Courier 10 Pitch';-inkscape-font-specification:CourierNewPS-BoldMT;writing-mode:lr-tb;fill:#a6a6a6;fill-opacity:1;fill-rule:nonzero;stroke:none"
                   transform="translate(1794.8594,15)"><tspan
                     id="tspan92"
                     y="0"
                     x="0 9.6484528 19.296906 28.945358 38.593811 48.242264 57.890717 67.539169 77.187622 86.836075">THPT Nguyễ</tspan></text>
</g><g
                 id="g138"
                 transform="matrix(3.1253908,0,0,3.1253908,-1051.8189,171.13887)"><text
                   id="text100"
                   style="font-variant:normal;font-weight:bold;font-size:16.07999992px;font-family:'Courier 10 Pitch';-inkscape-font-specification:CourierNewPS-BoldMT;writing-mode:lr-tb;fill:#a6a6a6;fill-opacity:1;fill-rule:nonzero;stroke:none"
                   transform="translate(328.08595,15)"><tspan
                     id="tspan98"
                     y="0"
                     x="0 9.6484528 19.296906 28.945358 38.593811 48.242264 57.890717 67.539169 77.187622 86.836075 96.484528 106.13298 115.78143 125.42989">HPT Nguyễn Huệ</tspan></text>
<text
                   id="text104"
                   style="font-variant:normal;font-weight:bold;font-size:16.07999992px;font-family:'Courier 10 Pitch';-inkscape-font-specification:CourierNewPS-BoldMT;writing-mode:lr-tb;fill:#a6a6a6;fill-opacity:1;fill-rule:nonzero;stroke:none"
                   transform="translate(482.48438,15)"><tspan
                     id="tspan102"
                     y="0"
                     x="0 9.6484528 19.296906 28.945358 38.593811 48.242264 57.890717 67.539169 77.187622 86.836075 96.484528 106.13298 115.78143 125.42989 135.07834">THPT Nguyễn Huệ</tspan></text>
<text
                   id="text108"
                   style="font-variant:normal;font-weight:bold;font-size:16.07999992px;font-family:'Courier 10 Pitch';-inkscape-font-specification:CourierNewPS-BoldMT;writing-mode:lr-tb;fill:#a6a6a6;fill-opacity:1;fill-rule:nonzero;stroke:none"
                   transform="translate(646.53125,15)"><tspan
                     id="tspan106"
                     y="0"
                     x="0 9.6484528 19.296906 28.945358 38.593811 48.242264 57.890717 67.539169 77.187622 86.836075 96.484528 106.13298 115.78143 125.42989 135.07834">THPT Nguyễn Huệ</tspan></text>
<text
                   id="text112"
                   style="font-variant:normal;font-weight:bold;font-size:16.07999992px;font-family:'Courier 10 Pitch';-inkscape-font-specification:CourierNewPS-BoldMT;writing-mode:lr-tb;fill:#a6a6a6;fill-opacity:1;fill-rule:nonzero;stroke:none"
                   transform="translate(810.57813,15)"><tspan
                     id="tspan110"
                     y="0"
                     x="0 9.6484528 19.296906 28.945358 38.593811 48.242264 57.890717 67.539169 77.187622 86.836075 96.484528 106.13298 115.78143 125.42989 135.07834">THPT Nguyễn Huệ</tspan></text>
<text
                   id="text116"
                   style="font-variant:normal;font-weight:bold;font-size:16.07999992px;font-family:'Courier 10 Pitch';-inkscape-font-specification:CourierNewPS-BoldMT;writing-mode:lr-tb;fill:#a6a6a6;fill-opacity:1;fill-rule:nonzero;stroke:none"
                   transform="translate(974.625,15)"><tspan
                     id="tspan114"
                     y="0"
                     x="0 9.6484528 19.296906 28.945358 38.593811 48.242264 57.890717 67.539169 77.187622 86.836075 96.484528 106.13298 115.78143 125.42989 135.07834">THPT Nguyễn Huệ</tspan></text>
<text
                   id="text120"
                   style="font-variant:normal;font-weight:bold;font-size:16.07999992px;font-family:'Courier 10 Pitch';-inkscape-font-specification:CourierNewPS-BoldMT;writing-mode:lr-tb;fill:#a6a6a6;fill-opacity:1;fill-rule:nonzero;stroke:none"
                   transform="translate(1138.6719,15)"><tspan
                     id="tspan118"
                     y="0"
                     x="0 9.6484528 19.296906 28.945358 38.593811 48.242264 57.890717 67.539169 77.187622 86.836075 96.484528 106.13298 115.78143 125.42989 135.07834">THPT Nguyễn Huệ</tspan></text>
<text
                   id="text124"
                   style="font-variant:normal;font-weight:bold;font-size:16.07999992px;font-family:'Courier 10 Pitch';-inkscape-font-specification:CourierNewPS-BoldMT;writing-mode:lr-tb;fill:#a6a6a6;fill-opacity:1;fill-rule:nonzero;stroke:none"
                   transform="translate(1302.7188,15)"><tspan
                     id="tspan122"
                     y="0"
                     x="0 9.6484528 19.296906 28.945358 38.593811 48.242264 57.890717 67.539169 77.187622 86.836075 96.484528 106.13298 115.78143 125.42989 135.07834">THPT Nguyễn Huệ</tspan></text>
<text
                   id="text128"
                   style="font-variant:normal;font-weight:bold;font-size:16.07999992px;font-family:'Courier 10 Pitch';-inkscape-font-specification:CourierNewPS-BoldMT;writing-mode:lr-tb;fill:#a6a6a6;fill-opacity:1;fill-rule:nonzero;stroke:none"
                   transform="translate(1466.7656,15)"><tspan
                     id="tspan126"
                     y="0"
                     x="0 9.6484528 19.296906 28.945358 38.593811 48.242264 57.890717 67.539169 77.187622 86.836075 96.484528 106.13298 115.78143 125.42989 135.07834">THPT Nguyễn Huệ</tspan></text>
<text
                   id="text132"
                   style="font-variant:normal;font-weight:bold;font-size:16.07999992px;font-family:'Courier 10 Pitch';-inkscape-font-specification:CourierNewPS-BoldMT;writing-mode:lr-tb;fill:#a6a6a6;fill-opacity:1;fill-rule:nonzero;stroke:none"
                   transform="translate(1630.8125,15)"><tspan
                     id="tspan130"
                     y="0"
                     x="0 9.6484528 19.296906 28.945358 38.593811 48.242264 57.890717 67.539169 77.187622 86.836075 96.484528 106.13298 115.78143 125.42989 135.07834">THPT Nguyễn Huệ</tspan></text>
<text
                   id="text136"
                   style="font-variant:normal;font-weight:bold;font-size:16.07999992px;font-family:'Courier 10 Pitch';-inkscape-font-specification:CourierNewPS-BoldMT;writing-mode:lr-tb;fill:#a6a6a6;fill-opacity:1;fill-rule:nonzero;stroke:none"
                   transform="translate(1794.8594,15)"><tspan
                     id="tspan134"
                     y="0"
                     x="0 9.6484528 19.296906 28.945358 38.593811 48.242264">THPT N</tspan></text>
</g><g
                 id="g180"
                 transform="matrix(3.1253908,0,0,3.1253908,-1147.808,348.14072)"><text
                   id="text142"
                   style="font-variant:normal;font-weight:bold;font-size:16.07999992px;font-family:'Courier 10 Pitch';-inkscape-font-specification:CourierNewPS-BoldMT;writing-mode:lr-tb;fill:#a6a6a6;fill-opacity:1;fill-rule:nonzero;stroke:none"
                   transform="translate(366.67976,15)"><tspan
                     id="tspan140"
                     y="0"
                     x="0 9.6484528 19.296906 28.945358 38.593811 48.242264 57.890717 67.539169 77.187622 86.836075">Nguyễn Huệ</tspan></text>
<text
                   id="text146"
                   style="font-variant:normal;font-weight:bold;font-size:16.07999992px;font-family:'Courier 10 Pitch';-inkscape-font-specification:CourierNewPS-BoldMT;writing-mode:lr-tb;fill:#a6a6a6;fill-opacity:1;fill-rule:nonzero;stroke:none"
                   transform="translate(482.48438,15)"><tspan
                     id="tspan144"
                     y="0"
                     x="0 9.6484528 19.296906 28.945358 38.593811 48.242264 57.890717 67.539169 77.187622 86.836075 96.484528 106.13298 115.78143 125.42989 135.07834">THPT Nguyễn Huệ</tspan></text>
<text
                   id="text150"
                   style="font-variant:normal;font-weight:bold;font-size:16.07999992px;font-family:'Courier 10 Pitch';-inkscape-font-specification:CourierNewPS-BoldMT;writing-mode:lr-tb;fill:#a6a6a6;fill-opacity:1;fill-rule:nonzero;stroke:none"
                   transform="translate(646.53125,15)"><tspan
                     id="tspan148"
                     y="0"
                     x="0 9.6484528 19.296906 28.945358 38.593811 48.242264 57.890717 67.539169 77.187622 86.836075 96.484528 106.13298 115.78143 125.42989 135.07834">THPT Nguyễn Huệ</tspan></text>
<text
                   id="text154"
                   style="font-variant:normal;font-weight:bold;font-size:16.07999992px;font-family:'Courier 10 Pitch';-inkscape-font-specification:CourierNewPS-BoldMT;writing-mode:lr-tb;fill:#a6a6a6;fill-opacity:1;fill-rule:nonzero;stroke:none"
                   transform="translate(810.57813,15)"><tspan
                     id="tspan152"
                     y="0"
                     x="0 9.6484528 19.296906 28.945358 38.593811 48.242264 57.890717 67.539169 77.187622 86.836075 96.484528 106.13298 115.78143 125.42989 135.07834">THPT Nguyễn Huệ</tspan></text>
<text
                   id="text158"
                   style="font-variant:normal;font-weight:bold;font-size:16.07999992px;font-family:'Courier 10 Pitch';-inkscape-font-specification:CourierNewPS-BoldMT;writing-mode:lr-tb;fill:#a6a6a6;fill-opacity:1;fill-rule:nonzero;stroke:none"
                   transform="translate(974.625,15)"><tspan
                     id="tspan156"
                     y="0"
                     x="0 9.6484528 19.296906 28.945358 38.593811 48.242264 57.890717 67.539169 77.187622 86.836075 96.484528 106.13298 115.78143 125.42989 135.07834">THPT Nguyễn Huệ</tspan></text>
<text
                   id="text162"
                   style="font-variant:normal;font-weight:bold;font-size:16.07999992px;font-family:'Courier 10 Pitch';-inkscape-font-specification:CourierNewPS-BoldMT;writing-mode:lr-tb;fill:#a6a6a6;fill-opacity:1;fill-rule:nonzero;stroke:none"
                   transform="translate(1138.6719,15)"><tspan
                     id="tspan160"
                     y="0"
                     x="0 9.6484528 19.296906 28.945358 38.593811 48.242264 57.890717 67.539169 77.187622 86.836075 96.484528 106.13298 115.78143 125.42989 135.07834">THPT Nguyễn Huệ</tspan></text>
<text
                   id="text166"
                   style="font-variant:normal;font-weight:bold;font-size:16.07999992px;font-family:'Courier 10 Pitch';-inkscape-font-specification:CourierNewPS-BoldMT;writing-mode:lr-tb;fill:#a6a6a6;fill-opacity:1;fill-rule:nonzero;stroke:none"
                   transform="translate(1302.7188,15)"><tspan
                     id="tspan164"
                     y="0"
                     x="0 9.6484528 19.296906 28.945358 38.593811 48.242264 57.890717 67.539169 77.187622 86.836075 96.484528 106.13298 115.78143 125.42989 135.07834">THPT Nguyễn Huệ</tspan></text>
<text
                   id="text170"
                   style="font-variant:normal;font-weight:bold;font-size:16.07999992px;font-family:'Courier 10 Pitch';-inkscape-font-specification:CourierNewPS-BoldMT;writing-mode:lr-tb;fill:#a6a6a6;fill-opacity:1;fill-rule:nonzero;stroke:none"
                   transform="translate(1466.7656,15)"><tspan
                     id="tspan168"
                     y="0"
                     x="0 9.6484528 19.296906 28.945358 38.593811 48.242264 57.890717 67.539169 77.187622 86.836075 96.484528 106.13298 115.78143 125.42989 135.07834">THPT Nguyễn Huệ</tspan></text>
<text
                   id="text174"
                   style="font-variant:normal;font-weight:bold;font-size:16.07999992px;font-family:'Courier 10 Pitch';-inkscape-font-specification:CourierNewPS-BoldMT;writing-mode:lr-tb;fill:#a6a6a6;fill-opacity:1;fill-rule:nonzero;stroke:none"
                   transform="translate(1630.8125,15)"><tspan
                     id="tspan172"
                     y="0"
                     x="0 9.6484528 19.296906 28.945358 38.593811 48.242264 57.890717 67.539169 77.187622 86.836075 96.484528 106.13298 115.78143 125.42989 135.07834">THPT Nguyễn Huệ</tspan></text>
<text
                   id="text178"
                   style="font-variant:normal;font-weight:bold;font-size:16.07999992px;font-family:'Courier 10 Pitch';-inkscape-font-specification:CourierNewPS-BoldMT;writing-mode:lr-tb;fill:#a6a6a6;fill-opacity:1;fill-rule:nonzero;stroke:none"
                   transform="translate(1794.8594,15)"><tspan
                     id="tspan176"
                     y="0"
                     x="0 9.6484528 19.296906 28.945358 38.593811 48.242264 57.890717 67.539169 77.187622">THPT Nguy</tspan></text>
</g><g
                 id="g206"
                 transform="matrix(3.1253908,0,0,3.1253908,-1687.0615,49.452118)"><text
                   id="text184"
                   style="font-variant:normal;font-weight:bold;font-size:30.73999977px;font-family:TimesNewRomanPS;-inkscape-font-specification:TimesNewRomanPS-BoldMT;writing-mode:lr-tb;fill:#cf3232;fill-opacity:1;fill-rule:nonzero;stroke:none"
                   transform="translate(549.79688,31)"><tspan
                     id="tspan182"
                     y="0"
                     x="0 20.499588 44.405777 63.179565 83.123795 90.807388 113.00278 128.36996 145.46297 160.83015 174.47154 191.56454 199.24814 223.15433 240.24733">THPT Nguyễn Huệ</tspan></text>
<text
                   id="text188"
                   style="font-variant:normal;font-weight:bold;font-size:30.73999977px;font-family:TimesNewRomanPS;-inkscape-font-specification:TimesNewRomanPS-BoldMT;writing-mode:lr-tb;fill:#cf3232;fill-opacity:1;fill-rule:nonzero;stroke:none"
                   transform="translate(818.5,31)"><tspan
                     id="tspan186"
                     y="0"
                     x="0 20.499588 44.405777 63.179565 83.123795 90.807388 113.00278 128.36996 145.46297 160.83015 174.47154 191.56454 199.24814 223.15433 240.24733">THPT Nguyễn Huệ</tspan></text>
<text
                   id="text192"
                   style="font-variant:normal;font-weight:bold;font-size:30.73999977px;font-family:TimesNewRomanPS;-inkscape-font-specification:TimesNewRomanPS-BoldMT;writing-mode:lr-tb;fill:#cf3232;fill-opacity:1;fill-rule:nonzero;stroke:none"
                   transform="translate(1087.2031,31)"><tspan
                     id="tspan190"
                     y="0"
                     x="0 20.499588 44.405777 63.179565 83.123795 90.807388 113.00278 128.36996 145.46297 160.83015 174.47154 191.56454 199.24814 223.15433 240.24733">THPT Nguyễn Huệ</tspan></text>
<text
                   id="text196"
                   style="font-variant:normal;font-weight:bold;font-size:30.73999977px;font-family:TimesNewRomanPS;-inkscape-font-specification:TimesNewRomanPS-BoldMT;writing-mode:lr-tb;fill:#cf3232;fill-opacity:1;fill-rule:nonzero;stroke:none"
                   transform="translate(1355.9063,31)"><tspan
                     id="tspan194"
                     y="0"
                     x="0 20.499588 44.405777 63.179565 83.123795 90.807388 113.00278 128.36996 145.46297 160.83015 174.47154 191.56454 199.24814 223.15433 240.24733">THPT Nguyễn Huệ</tspan></text>
<text
                   id="text200"
                   style="font-variant:normal;font-weight:bold;font-size:30.73999977px;font-family:TimesNewRomanPS;-inkscape-font-specification:TimesNewRomanPS-BoldMT;writing-mode:lr-tb;fill:#cf3232;fill-opacity:1;fill-rule:nonzero;stroke:none"
                   transform="translate(1624.6094,31)"><tspan
                     id="tspan198"
                     y="0"
                     x="0 20.499588 44.405777 63.179565 83.123795 90.807388 113.00278 128.36996 145.46297 160.83015 174.47154 191.56454 199.24814 223.15433 240.24733">THPT Nguyễn Huệ</tspan></text>
<text
                   id="text204"
                   style="font-variant:normal;font-weight:bold;font-size:30.73999977px;font-family:TimesNewRomanPS;-inkscape-font-specification:TimesNewRomanPS-BoldMT;writing-mode:lr-tb;fill:#cf3232;fill-opacity:1;fill-rule:nonzero;stroke:none"
                   transform="translate(1893.3125,31)"><tspan
                     id="tspan202"
                     y="0"
                     x="0 20.499588 44.405777 63.179565 83.123795 90.807388 113.00278 128.36996 145.46297">THPT Nguy</tspan></text>
</g><g
                 id="g232"
                 transform="matrix(3.1253908,0,0,3.1253908,-2013.2787,225.26048)"><text
                   id="text210"
                   style="font-variant:normal;font-weight:bold;font-size:30.73999977px;font-family:TimesNewRomanPS;-inkscape-font-specification:TimesNewRomanPS-BoldMT;writing-mode:lr-tb;fill:#cf3232;fill-opacity:1;fill-rule:nonzero;stroke:none"
                   transform="translate(640.60427,31)"><tspan
                     id="tspan208"
                     y="0"
                     x="0 22.195389 37.562576 54.655579 70.022766 83.664154 100.75716 108.44075 132.34694 149.43994">Nguyễn Huệ</tspan></text>
<text
                   id="text214"
                   style="font-variant:normal;font-weight:bold;font-size:30.73999977px;font-family:TimesNewRomanPS;-inkscape-font-specification:TimesNewRomanPS-BoldMT;writing-mode:lr-tb;fill:#cf3232;fill-opacity:1;fill-rule:nonzero;stroke:none"
                   transform="translate(818.5,31)"><tspan
                     id="tspan212"
                     y="0"
                     x="0 20.499588 44.405777 63.179565 83.123795 90.807388 113.00278 128.36996 145.46297 160.83015 174.47154 191.56454 199.24814 223.15433 240.24733">THPT Nguyễn Huệ</tspan></text>
<text
                   id="text218"
                   style="font-variant:normal;font-weight:bold;font-size:30.73999977px;font-family:TimesNewRomanPS;-inkscape-font-specification:TimesNewRomanPS-BoldMT;writing-mode:lr-tb;fill:#cf3232;fill-opacity:1;fill-rule:nonzero;stroke:none"
                   transform="translate(1087.2031,31)"><tspan
                     id="tspan216"
                     y="0"
                     x="0 20.499588 44.405777 63.179565 83.123795 90.807388 113.00278 128.36996 145.46297 160.83015 174.47154 191.56454 199.24814 223.15433 240.24733">THPT Nguyễn Huệ</tspan></text>
<text
                   id="text222"
                   style="font-variant:normal;font-weight:bold;font-size:30.73999977px;font-family:TimesNewRomanPS;-inkscape-font-specification:TimesNewRomanPS-BoldMT;writing-mode:lr-tb;fill:#cf3232;fill-opacity:1;fill-rule:nonzero;stroke:none"
                   transform="translate(1355.9063,31)"><tspan
                     id="tspan220"
                     y="0"
                     x="0 20.499588 44.405777 63.179565 83.123795 90.807388 113.00278 128.36996 145.46297 160.83015 174.47154 191.56454 199.24814 223.15433 240.24733">THPT Nguyễn Huệ</tspan></text>
<text
                   id="text226"
                   style="font-variant:normal;font-weight:bold;font-size:30.73999977px;font-family:TimesNewRomanPS;-inkscape-font-specification:TimesNewRomanPS-BoldMT;writing-mode:lr-tb;fill:#cf3232;fill-opacity:1;fill-rule:nonzero;stroke:none"
                   transform="translate(1624.6094,31)"><tspan
                     id="tspan224"
                     y="0"
                     x="0 20.499588 44.405777 63.179565 83.123795 90.807388 113.00278 128.36996 145.46297 160.83015 174.47154 191.56454 199.24814 223.15433 240.24733">THPT Nguyễn Huệ</tspan></text>
<text
                   id="text230"
                   style="font-variant:normal;font-weight:bold;font-size:30.73999977px;font-family:TimesNewRomanPS;-inkscape-font-specification:TimesNewRomanPS-BoldMT;writing-mode:lr-tb;fill:#cf3232;fill-opacity:1;fill-rule:nonzero;stroke:none"
                   transform="translate(1893.3125,31)"><tspan
                     id="tspan228"
                     y="0"
                     x="0 20.499588 44.405777 63.179565 83.123795 90.807388 113.00278 128.36996 145.46297 160.83015 174.47154 191.56454 199.24814 223.15433 240.24733">THPT Nguyễn Huệ</tspan></text>
</g><g
                 id="g262"
                 transform="matrix(3.1253908,0,0,3.1253908,-2184.8262,402.2623)"><text
                   id="text236"
                   style="font-variant:normal;font-weight:bold;font-size:30.73999977px;font-family:TimesNewRomanPS;-inkscape-font-specification:TimesNewRomanPS-BoldMT;writing-mode:lr-tb;fill:#cf3232;fill-opacity:1;fill-rule:nonzero;stroke:none"
                   transform="translate(695.25985,31)"><tspan
                     id="tspan234"
                     y="0"
                     x="0 15.367188 29.008575 46.101578 53.785172 77.69136 94.784363">yễn Huệ</tspan></text>
<text
                   id="text240"
                   style="font-variant:normal;font-weight:bold;font-size:30.73999977px;font-family:TimesNewRomanPS;-inkscape-font-specification:TimesNewRomanPS-BoldMT;writing-mode:lr-tb;fill:#cf3232;fill-opacity:1;fill-rule:nonzero;stroke:none"
                   transform="translate(818.5,31)"><tspan
                     id="tspan238"
                     y="0"
                     x="0 20.499588 44.405777 63.179565 83.123795 90.807388 113.00278 128.36996 145.46297 160.83015 174.47154 191.56454 199.24814 223.15433 240.24733">THPT Nguyễn Huệ</tspan></text>
<text
                   id="text244"
                   style="font-variant:normal;font-weight:bold;font-size:30.73999977px;font-family:TimesNewRomanPS;-inkscape-font-specification:TimesNewRomanPS-BoldMT;writing-mode:lr-tb;fill:#cf3232;fill-opacity:1;fill-rule:nonzero;stroke:none"
                   transform="translate(1087.2031,31)"><tspan
                     id="tspan242"
                     y="0"
                     x="0 20.499588 44.405777 63.179565 83.123795 90.807388 113.00278 128.36996 145.46297 160.83015 174.47154 191.56454 199.24814 223.15433 240.24733">THPT Nguyễn Huệ</tspan></text>
<text
                   id="text248"
                   style="font-variant:normal;font-weight:bold;font-size:30.73999977px;font-family:TimesNewRomanPS;-inkscape-font-specification:TimesNewRomanPS-BoldMT;writing-mode:lr-tb;fill:#cf3232;fill-opacity:1;fill-rule:nonzero;stroke:none"
                   transform="translate(1355.9063,31)"><tspan
                     id="tspan246"
                     y="0"
                     x="0 20.499588 44.405777 63.179565 83.123795 90.807388 113.00278 128.36996 145.46297 160.83015 174.47154 191.56454 199.24814 223.15433 240.24733">THPT Nguyễn Huệ</tspan></text>
<text
                   id="text252"
                   style="font-variant:normal;font-weight:bold;font-size:30.73999977px;font-family:TimesNewRomanPS;-inkscape-font-specification:TimesNewRomanPS-BoldMT;writing-mode:lr-tb;fill:#cf3232;fill-opacity:1;fill-rule:nonzero;stroke:none"
                   transform="translate(1624.6094,31)"><tspan
                     id="tspan250"
                     y="0"
                     x="0 20.499588 44.405777 63.179565 83.123795 90.807388 113.00278 128.36996 145.46297 160.83015 174.47154 191.56454 199.24814 223.15433 240.24733">THPT Nguyễn Huệ</tspan></text>
<text
                   id="text256"
                   style="font-variant:normal;font-weight:bold;font-size:30.73999977px;font-family:TimesNewRomanPS;-inkscape-font-specification:TimesNewRomanPS-BoldMT;writing-mode:lr-tb;fill:#cf3232;fill-opacity:1;fill-rule:nonzero;stroke:none"
                   transform="translate(1893.3125,31)"><tspan
                     id="tspan254"
                     y="0"
                     x="0 20.499588 44.405777 63.179565 83.123795 90.807388 113.00278 128.36996 145.46297 160.83015 174.47154 191.56454 199.24814 223.15433 240.24733">THPT Nguyễn Huệ</tspan></text>
<text
                   id="text260"
                   style="font-variant:normal;font-weight:bold;font-size:30.73999977px;font-family:TimesNewRomanPS;-inkscape-font-specification:TimesNewRomanPS-BoldMT;writing-mode:lr-tb;fill:#cf3232;fill-opacity:1;fill-rule:nonzero;stroke:none"
                   transform="translate(2162.0156,31)"><tspan
                     id="tspan258"
                     y="0"
                     x="0 20.499588 44.405777">THP</tspan></text>
</g><g
                 id="g304"
                 transform="matrix(3.1253908,0,0,3.1253908,-1110.8813,522.01715)"><text
                   id="text266"
                   style="font-variant:normal;font-weight:bold;font-size:16.07999992px;font-family:'Courier 10 Pitch';-inkscape-font-specification:CourierNewPS-BoldMT;writing-mode:lr-tb;fill:#a6a6a6;fill-opacity:1;fill-rule:nonzero;stroke:none"
                   transform="translate(347.38286,15)"><tspan
                     id="tspan264"
                     y="0"
                     x="0 9.6484528 19.296906 28.945358 38.593811 48.242264 57.890717 67.539169 77.187622 86.836075 96.484528 106.13298">T Nguyễn Huệ</tspan></text>
<text
                   id="text270"
                   style="font-variant:normal;font-weight:bold;font-size:16.07999992px;font-family:'Courier 10 Pitch';-inkscape-font-specification:CourierNewPS-BoldMT;writing-mode:lr-tb;fill:#a6a6a6;fill-opacity:1;fill-rule:nonzero;stroke:none"
                   transform="translate(482.48438,15)"><tspan
                     id="tspan268"
                     y="0"
                     x="0 9.6484528 19.296906 28.945358 38.593811 48.242264 57.890717 67.539169 77.187622 86.836075 96.484528 106.13298 115.78143 125.42989 135.07834">THPT Nguyễn Huệ</tspan></text>
<text
                   id="text274"
                   style="font-variant:normal;font-weight:bold;font-size:16.07999992px;font-family:'Courier 10 Pitch';-inkscape-font-specification:CourierNewPS-BoldMT;writing-mode:lr-tb;fill:#a6a6a6;fill-opacity:1;fill-rule:nonzero;stroke:none"
                   transform="translate(646.53125,15)"><tspan
                     id="tspan272"
                     y="0"
                     x="0 9.6484528 19.296906 28.945358 38.593811 48.242264 57.890717 67.539169 77.187622 86.836075 96.484528 106.13298 115.78143 125.42989 135.07834">THPT Nguyễn Huệ</tspan></text>
<text
                   id="text278"
                   style="font-variant:normal;font-weight:bold;font-size:16.07999992px;font-family:'Courier 10 Pitch';-inkscape-font-specification:CourierNewPS-BoldMT;writing-mode:lr-tb;fill:#a6a6a6;fill-opacity:1;fill-rule:nonzero;stroke:none"
                   transform="translate(810.57813,15)"><tspan
                     id="tspan276"
                     y="0"
                     x="0 9.6484528 19.296906 28.945358 38.593811 48.242264 57.890717 67.539169 77.187622 86.836075 96.484528 106.13298 115.78143 125.42989 135.07834">THPT Nguyễn Huệ</tspan></text>
<text
                   id="text282"
                   style="font-variant:normal;font-weight:bold;font-size:16.07999992px;font-family:'Courier 10 Pitch';-inkscape-font-specification:CourierNewPS-BoldMT;writing-mode:lr-tb;fill:#a6a6a6;fill-opacity:1;fill-rule:nonzero;stroke:none"
                   transform="translate(974.625,15)"><tspan
                     id="tspan280"
                     y="0"
                     x="0 9.6484528 19.296906 28.945358 38.593811 48.242264 57.890717 67.539169 77.187622 86.836075 96.484528 106.13298 115.78143 125.42989 135.07834">THPT Nguyễn Huệ</tspan></text>
<text
                   id="text286"
                   style="font-variant:normal;font-weight:bold;font-size:16.07999992px;font-family:'Courier 10 Pitch';-inkscape-font-specification:CourierNewPS-BoldMT;writing-mode:lr-tb;fill:#a6a6a6;fill-opacity:1;fill-rule:nonzero;stroke:none"
                   transform="translate(1138.6719,15)"><tspan
                     id="tspan284"
                     y="0"
                     x="0 9.6484528 19.296906 28.945358 38.593811 48.242264 57.890717 67.539169 77.187622 86.836075 96.484528 106.13298 115.78143 125.42989 135.07834">THPT Nguyễn Huệ</tspan></text>
<text
                   id="text290"
                   style="font-variant:normal;font-weight:bold;font-size:16.07999992px;font-family:'Courier 10 Pitch';-inkscape-font-specification:CourierNewPS-BoldMT;writing-mode:lr-tb;fill:#a6a6a6;fill-opacity:1;fill-rule:nonzero;stroke:none"
                   transform="translate(1302.7188,15)"><tspan
                     id="tspan288"
                     y="0"
                     x="0 9.6484528 19.296906 28.945358 38.593811 48.242264 57.890717 67.539169 77.187622 86.836075 96.484528 106.13298 115.78143 125.42989 135.07834">THPT Nguyễn Huệ</tspan></text>
<text
                   id="text294"
                   style="font-variant:normal;font-weight:bold;font-size:16.07999992px;font-family:'Courier 10 Pitch';-inkscape-font-specification:CourierNewPS-BoldMT;writing-mode:lr-tb;fill:#a6a6a6;fill-opacity:1;fill-rule:nonzero;stroke:none"
                   transform="translate(1466.7656,15)"><tspan
                     id="tspan292"
                     y="0"
                     x="0 9.6484528 19.296906 28.945358 38.593811 48.242264 57.890717 67.539169 77.187622 86.836075 96.484528 106.13298 115.78143 125.42989 135.07834">THPT Nguyễn Huệ</tspan></text>
<text
                   id="text298"
                   style="font-variant:normal;font-weight:bold;font-size:16.07999992px;font-family:'Courier 10 Pitch';-inkscape-font-specification:CourierNewPS-BoldMT;writing-mode:lr-tb;fill:#a6a6a6;fill-opacity:1;fill-rule:nonzero;stroke:none"
                   transform="translate(1630.8125,15)"><tspan
                     id="tspan296"
                     y="0"
                     x="0 9.6484528 19.296906 28.945358 38.593811 48.242264 57.890717 67.539169 77.187622 86.836075 96.484528 106.13298 115.78143 125.42989 135.07834">THPT Nguyễn Huệ</tspan></text>
<text
                   id="text302"
                   style="font-variant:normal;font-weight:bold;font-size:16.07999992px;font-family:'Courier 10 Pitch';-inkscape-font-specification:CourierNewPS-BoldMT;writing-mode:lr-tb;fill:#a6a6a6;fill-opacity:1;fill-rule:nonzero;stroke:none"
                   transform="translate(1794.8594,15)"><tspan
                     id="tspan300"
                     y="0"
                     x="0 9.6484528 19.296906 28.945358 38.593811 48.242264 57.890717 67.539169">THPT Ngu</tspan></text>
</g></g></g></g></g></g></g></svg>